<svg xmlns="http://www.w3.org/2000/svg" width="18" height="18" viewBox="0 0 18 18"><defs><style>.a{fill:#c3c3c3;}</style></defs><g transform="translate(-2 -2)"><path class="a" d="M2,22.085a.943.943,0,0,0,.282.672.972.972,0,0,0,.682.278H19.036a.972.972,0,0,0,.682-.278A.943.943,0,0,0,20,22.085V11H2Zm12.857-9.66a.157.157,0,0,1,.047-.112.162.162,0,0,1,.114-.046h1.607a.162.162,0,0,1,.114.046.157.157,0,0,1,.047.112v1.584a.157.157,0,0,1-.047.112.162.162,0,0,1-.114.046H15.018a.162.162,0,0,1-.114-.046.157.157,0,0,1-.047-.112Zm0,3.167a.157.157,0,0,1,.047-.112.162.162,0,0,1,.114-.046h1.607a.162.162,0,0,1,.114.046.157.157,0,0,1,.047.112v1.584a.157.157,0,0,1-.047.112.162.162,0,0,1-.114.046H15.018a.162.162,0,0,1-.114-.046.157.157,0,0,1-.047-.112Zm-3.214-3.167a.157.157,0,0,1,.047-.112.162.162,0,0,1,.114-.046h1.607a.162.162,0,0,1,.114.046.157.157,0,0,1,.047.112v1.584a.157.157,0,0,1-.047.112.162.162,0,0,1-.114.046H11.8a.162.162,0,0,1-.114-.046.157.157,0,0,1-.047-.112Zm0,3.167a.157.157,0,0,1,.047-.112.162.162,0,0,1,.114-.046h1.607a.162.162,0,0,1,.114.046.157.157,0,0,1,.047.112v1.584a.157.157,0,0,1-.047.112.162.162,0,0,1-.114.046H11.8a.162.162,0,0,1-.114-.046.157.157,0,0,1-.047-.112Zm0,3.167a.157.157,0,0,1,.047-.112A.162.162,0,0,1,11.8,18.6h1.607a.162.162,0,0,1,.114.046.157.157,0,0,1,.047.112v1.584a.157.157,0,0,1-.047.112.162.162,0,0,1-.114.046H11.8a.162.162,0,0,1-.114-.046.157.157,0,0,1-.047-.112ZM8.429,15.592a.157.157,0,0,1,.047-.112.162.162,0,0,1,.114-.046H10.2a.162.162,0,0,1,.114.046.157.157,0,0,1,.047.112v1.584a.157.157,0,0,1-.047.112.162.162,0,0,1-.114.046H8.589a.162.162,0,0,1-.114-.046.157.157,0,0,1-.047-.112Zm0,3.167a.157.157,0,0,1,.047-.112.162.162,0,0,1,.114-.046H10.2a.162.162,0,0,1,.114.046.157.157,0,0,1,.047.112v1.584a.157.157,0,0,1-.047.112.162.162,0,0,1-.114.046H8.589a.162.162,0,0,1-.114-.046.157.157,0,0,1-.047-.112ZM5.214,15.592a.157.157,0,0,1,.047-.112.162.162,0,0,1,.114-.046H6.982a.162.162,0,0,1,.114.046.157.157,0,0,1,.047.112v1.584a.157.157,0,0,1-.047.112.162.162,0,0,1-.114.046H5.375a.162.162,0,0,1-.114-.046.157.157,0,0,1-.047-.112Zm0,3.167a.157.157,0,0,1,.047-.112.162.162,0,0,1,.114-.046H6.982a.162.162,0,0,1,.114.046.157.157,0,0,1,.047.112v1.584a.157.157,0,0,1-.047.112.162.162,0,0,1-.114.046H5.375a.162.162,0,0,1-.114-.046.157.157,0,0,1-.047-.112Z" transform="translate(0 -3.035)"/><path class="a" d="M19.036,3.326H16.789V2H14.86V3.326H7.14V2H5.211V3.326H2.964A.931.931,0,0,0,2.6,3.4a.955.955,0,0,0-.313.213.988.988,0,0,0-.209.32A1.012,1.012,0,0,0,2,4.31V6.639H20V4.31a1.011,1.011,0,0,0-.074-.379.987.987,0,0,0-.209-.32A.954.954,0,0,0,19.4,3.4a.931.931,0,0,0-.368-.073Z"/></g></svg>